<svg id="visual" viewBox="0 0 1920 1080" width="1920" height="1080" xmlns="http://www.w3.org/2000/svg" xmlns:xlink="http://www.w3.org/1999/xlink" version="1.1"><path d="M0 120L40 114.5C80 109 160 98 240 98C320 98 400 109 480 119.8C560 130.7 640 141.3 720 144.8C800 148.3 880 144.7 960 141.2C1040 137.7 1120 134.3 1200 136.2C1280 138 1360 145 1440 137.7C1520 130.3 1600 108.7 1680 97.8C1760 87 1840 87 1880 87L1920 87L1920 0L1880 0C1840 0 1760 0 1680 0C1600 0 1520 0 1440 0C1360 0 1280 0 1200 0C1120 0 1040 0 960 0C880 0 800 0 720 0C640 0 560 0 480 0C400 0 320 0 240 0C160 0 80 0 40 0L0 0Z" fill="#fea7ff"></path><path d="M0 487L40 476.2C80 465.3 160 443.7 240 438.3C320 433 400 444 480 454.8C560 465.7 640 476.3 720 490.7C800 505 880 523 960 499.7C1040 476.3 1120 411.7 1200 399C1280 386.3 1360 425.7 1440 427.3C1520 429 1600 393 1680 375C1760 357 1840 357 1880 357L1920 357L1920 85L1880 85C1840 85 1760 85 1680 95.8C1600 106.7 1520 128.3 1440 135.7C1360 143 1280 136 1200 134.2C1120 132.3 1040 135.7 960 139.2C880 142.7 800 146.3 720 142.8C640 139.3 560 128.7 480 117.8C400 107 320 96 240 96C160 96 80 107 40 112.5L0 118Z" fill="#fd91ff"></path><path d="M0 714L40 688.8C80 663.7 160 613.3 240 607.8C320 602.3 400 641.7 480 654.2C560 666.7 640 652.3 720 659.7C800 667 880 696 960 687C1040 678 1120 631 1200 616.5C1280 602 1360 620 1440 612.8C1520 605.7 1600 573.3 1680 566.2C1760 559 1840 577 1880 586L1920 595L1920 355L1880 355C1840 355 1760 355 1680 373C1600 391 1520 427 1440 425.3C1360 423.7 1280 384.3 1200 397C1120 409.7 1040 474.3 960 497.7C880 521 800 503 720 488.7C640 474.3 560 463.7 480 452.8C400 442 320 431 240 436.3C160 441.7 80 463.3 40 474.2L0 485Z" fill="#fb79ff"></path><path d="M0 908L40 909.8C80 911.7 160 915.3 240 913.5C320 911.7 400 904.3 480 906.2C560 908 640 919 720 928C800 937 880 944 960 944C1040 944 1120 937 1200 929.8C1280 922.7 1360 915.3 1440 909.8C1520 904.3 1600 900.7 1680 902.5C1760 904.3 1840 911.7 1880 915.3L1920 919L1920 593L1880 584C1840 575 1760 557 1680 564.2C1600 571.3 1520 603.7 1440 610.8C1360 618 1280 600 1200 614.5C1120 629 1040 676 960 685C880 694 800 665 720 657.7C640 650.3 560 664.7 480 652.2C400 639.7 320 600.3 240 605.8C160 611.3 80 661.7 40 686.8L0 712Z" fill="#ef6af3"></path><path d="M0 1081L40 1081C80 1081 160 1081 240 1081C320 1081 400 1081 480 1081C560 1081 640 1081 720 1081C800 1081 880 1081 960 1081C1040 1081 1120 1081 1200 1081C1280 1081 1360 1081 1440 1081C1520 1081 1600 1081 1680 1081C1760 1081 1840 1081 1880 1081L1920 1081L1920 917L1880 913.3C1840 909.7 1760 902.3 1680 900.5C1600 898.7 1520 902.3 1440 907.8C1360 913.3 1280 920.7 1200 927.8C1120 935 1040 942 960 942C880 942 800 935 720 926C640 917 560 906 480 904.2C400 902.3 320 909.7 240 911.5C160 913.3 80 909.7 40 907.8L0 906Z" fill="#e45be8"></path></svg>