<svg id="visual" viewBox="0 0 1920 1080" width="1920" height="1080" xmlns="http://www.w3.org/2000/svg" xmlns:xlink="http://www.w3.org/1999/xlink" version="1.1"><rect x="0" y="0" width="1920" height="1080" fill="#ebebeb"></rect><path d="M0 269L64 251.2C128 233.3 256 197.7 384 245.5C512 293.3 640 424.7 768 468.5C896 512.3 1024 468.7 1152 420.2C1280 371.7 1408 318.3 1536 266.7C1664 215 1792 165 1856 140L1920 115L1920 1081L1856 1081C1792 1081 1664 1081 1536 1081C1408 1081 1280 1081 1152 1081C1024 1081 896 1081 768 1081C640 1081 512 1081 384 1081C256 1081 128 1081 64 1081L0 1081Z" fill="#ff7474"></path><path d="M0 558L64 548.3C128 538.7 256 519.3 384 529C512 538.7 640 577.3 768 579C896 580.7 1024 545.3 1152 553C1280 560.7 1408 611.3 1536 589C1664 566.7 1792 471.3 1856 423.7L1920 376L1920 1081L1856 1081C1792 1081 1664 1081 1536 1081C1408 1081 1280 1081 1152 1081C1024 1081 896 1081 768 1081C640 1081 512 1081 384 1081C256 1081 128 1081 64 1081L0 1081Z" fill="#ff7970"></path><path d="M0 611L64 597.3C128 583.7 256 556.3 384 566.2C512 576 640 623 768 616.8C896 610.7 1024 551.3 1152 505C1280 458.7 1408 425.3 1536 417.2C1664 409 1792 426 1856 434.5L1920 443L1920 1081L1856 1081C1792 1081 1664 1081 1536 1081C1408 1081 1280 1081 1152 1081C1024 1081 896 1081 768 1081C640 1081 512 1081 384 1081C256 1081 128 1081 64 1081L0 1081Z" fill="#ff7e6c"></path><path d="M0 687L64 678.8C128 670.7 256 654.3 384 612.3C512 570.3 640 502.7 768 515.7C896 528.7 1024 622.3 1152 625.8C1280 629.3 1408 542.7 1536 488.5C1664 434.3 1792 412.7 1856 401.8L1920 391L1920 1081L1856 1081C1792 1081 1664 1081 1536 1081C1408 1081 1280 1081 1152 1081C1024 1081 896 1081 768 1081C640 1081 512 1081 384 1081C256 1081 128 1081 64 1081L0 1081Z" fill="#ff8468"></path><path d="M0 594L64 600.2C128 606.3 256 618.7 384 616.8C512 615 640 599 768 619.5C896 640 1024 697 1152 687.2C1280 677.3 1408 600.7 1536 578.7C1664 556.7 1792 589.3 1856 605.7L1920 622L1920 1081L1856 1081C1792 1081 1664 1081 1536 1081C1408 1081 1280 1081 1152 1081C1024 1081 896 1081 768 1081C640 1081 512 1081 384 1081C256 1081 128 1081 64 1081L0 1081Z" fill="#ff8965"></path><path d="M0 731L64 715.8C128 700.7 256 670.3 384 660.5C512 650.7 640 661.3 768 658.2C896 655 1024 638 1152 633.5C1280 629 1408 637 1536 664.2C1664 691.3 1792 737.7 1856 760.8L1920 784L1920 1081L1856 1081C1792 1081 1664 1081 1536 1081C1408 1081 1280 1081 1152 1081C1024 1081 896 1081 768 1081C640 1081 512 1081 384 1081C256 1081 128 1081 64 1081L0 1081Z" fill="#ff8f61"></path><path d="M0 755L64 744.8C128 734.7 256 714.3 384 722C512 729.7 640 765.3 768 799.8C896 834.3 1024 867.7 1152 869.2C1280 870.7 1408 840.3 1536 840C1664 839.7 1792 869.3 1856 884.2L1920 899L1920 1081L1856 1081C1792 1081 1664 1081 1536 1081C1408 1081 1280 1081 1152 1081C1024 1081 896 1081 768 1081C640 1081 512 1081 384 1081C256 1081 128 1081 64 1081L0 1081Z" fill="#ff945e"></path><path d="M0 803L64 811.8C128 820.7 256 838.3 384 849.3C512 860.3 640 864.7 768 868.3C896 872 1024 875 1152 877.2C1280 879.3 1408 880.7 1536 891C1664 901.3 1792 920.7 1856 930.3L1920 940L1920 1081L1856 1081C1792 1081 1664 1081 1536 1081C1408 1081 1280 1081 1152 1081C1024 1081 896 1081 768 1081C640 1081 512 1081 384 1081C256 1081 128 1081 64 1081L0 1081Z" fill="#ff9a5c"></path><path d="M0 871L64 891C128 911 256 951 384 958.7C512 966.3 640 941.7 768 937.2C896 932.7 1024 948.3 1152 936.2C1280 924 1408 884 1536 862.2C1664 840.3 1792 836.7 1856 834.8L1920 833L1920 1081L1856 1081C1792 1081 1664 1081 1536 1081C1408 1081 1280 1081 1152 1081C1024 1081 896 1081 768 1081C640 1081 512 1081 384 1081C256 1081 128 1081 64 1081L0 1081Z" fill="#ffa059"></path><path d="M0 1030L64 1028.3C128 1026.7 256 1023.3 384 1018C512 1012.7 640 1005.3 768 989.2C896 973 1024 948 1152 953C1280 958 1408 993 1536 1006.7C1664 1020.3 1792 1012.7 1856 1008.8L1920 1005L1920 1081L1856 1081C1792 1081 1664 1081 1536 1081C1408 1081 1280 1081 1152 1081C1024 1081 896 1081 768 1081C640 1081 512 1081 384 1081C256 1081 128 1081 64 1081L0 1081Z" fill="#ffa657"></path></svg>