<svg id="Layer_1" data-name="Layer 1" xmlns="http://www.w3.org/2000/svg" viewBox="0 0 1755.81 591.29"><path d="M82,296V783.28a52,52,0,0,0,52,52H1785.8a52,52,0,0,0,52-52V296a52,52,0,0,0-52-52H134A52,52,0,0,0,82,296ZM382.54,729.32H318.32a83.12,83.12,0,0,1-4.6-17.34q-1.16-8.13-1.14-29.27V613.35q0-26-8.9-36.31T273,566.74H251.14V729.32H188V350h93.58q48.8,0,71.2,21.41t22.39,65.84v23.31q0,59.07-41.34,74.78v1.08q22.95,6.51,32.44,26.56t9.47,53.65v66.65a239.54,239.54,0,0,0,1.15,26.29A64.92,64.92,0,0,0,382.54,729.32Zm236.63,0H556L544.53,654v1.08H472.76l-11.48,74.25H402.72l63.19-366.24A15.8,15.8,0,0,1,481.47,350h58.95A15.8,15.8,0,0,1,556,363.08ZM830.45,437.77v40.1H770.73V434q0-35.22-31.57-35.22T707.58,434V645.86q0,34.7,31.58,34.68t31.57-34.68v-58h59.72v53.65q0,44.43-23.83,68.82t-69.19,24.39q-45.36,0-69.18-24.39t-23.83-68.82V437.77q0-44.43,23.83-68.83t69.18-24.38q45.36,0,69.19,24.38T830.45,437.77Zm245.73,291.55h-66l-53.4-169.08-25.26,48.23V729.32H868.34V350h63.15V509.84L1011.87,350H1075L999.81,489.25h0Zm210.9,0h-44.41L1231.19,654v1.08h-71.77l-11.48,74.25h-39.82a15.79,15.79,0,0,1-15.56-18.48l60-347.76A15.8,15.8,0,0,1,1168.12,350h59a15.79,15.79,0,0,1,15.56,13.11l60,347.76A15.8,15.8,0,0,1,1287.08,729.32Zm231.74-289.39v32.52h-59.71V436.14q0-37.39-32.72-37.39t-32.73,37.39V643.69q0,36.87,32.73,36.85t32.72-36.85V561.26h0c-13.93,15.84-31.57,6.18-31.57-7.6v-38.4h91.28v124.1q0,46.07-24.11,70.72t-70,24.66q-45.95,0-70.05-24.66t-24.11-70.72V439.93q0-46.05,24.11-70.72t70.05-24.65q45.91,0,70,24.65T1518.82,439.93Zm213-90v54.2H1622.74V504.42h86.69v54.19h-86.69V675.13h109.08v54.19H1559.58V350ZM304.25,413.38q7.75,9.22,7.75,29.8v29.27q0,21.68-9.47,30.89t-28.42,9.21h-23V404.17h28.71Q296.5,404.17,304.25,413.38Zm919.47,190.21h-38.56a15.79,15.79,0,0,1-15.62-18.08l24.9-169.42h1.15ZM508.93,416.09l28.14,187.5H480.23l27.56-187.5Z" transform="translate(-82 -244)"/></svg>