<svg id="Layer_1" data-name="Layer 1" xmlns="http://www.w3.org/2000/svg" xmlns:xlink="http://www.w3.org/1999/xlink" viewBox="0 0 527 827"><defs><style>.cls-1{fill:url(#linear-gradient);}</style><linearGradient id="linear-gradient" x1="444.98" y1="857.02" x2="1078.02" y2="223.98" gradientUnits="userSpaceOnUse"><stop offset="0" stop-color="gray"/><stop offset="0.2" stop-color="#fff"/><stop offset="0.5" stop-color="#939393"/><stop offset="0.8" stop-color="#fbfbfb"/><stop offset="1" stop-color="#878787"/></linearGradient></defs><path class="cls-1" d="M950,127H573a75,75,0,0,0-75,75V879a75,75,0,0,0,75,75H950a75,75,0,0,0,75-75V202A75,75,0,0,0,950,127ZM821.31,866A137,137,0,0,1,813,836.23q-2.09-14-2.07-50.24V666.91q0-44.65-16.05-62.33t-55.41-17.67H700.13V866H586.19V214.78H755q88,0,128.43,36.74t40.4,113v40Q923.85,506,849.28,533v1.86Q890.7,546,907.8,580.39t17.09,92.1V786.92q0,27.92,2.07,45.12a103.82,103.82,0,0,0,10.35,34ZM795.93,323.62q14,15.84,14,51.17V425q0,37.22-17.09,53t-51.27,15.81H700.13V307.81h51.79Q781.94,307.81,795.93,323.62Z" transform="translate(-498 -127)"/></svg>