<svg xmlns="http://www.w3.org/2000/svg" xmlns:xlink="http://www.w3.org/1999/xlink" viewBox="0 0 1920 1080"><defs><style>.a{fill:url(#a);}.b{fill:#fff;}</style><linearGradient id="a" y1="540" x2="1920" y2="540" gradientUnits="userSpaceOnUse"><stop offset="0" stop-color="#d174ff"/><stop offset="1" stop-color="#ff8157"/><stop offset="1" stop-color="#fd815d"/><stop offset="1"/></linearGradient></defs><rect class="a" width="1920" height="1080"/><path class="b" d="M981.62,177.15H891.15l34.37-34.37a48.77,48.77,0,0,1,69,0l37.11,37.12A438.34,438.34,0,0,0,981.62,177.15ZM965.15,346H865.3V497.28h99.85q41.16,0,61.76-19.56t20.59-56.61q0-35-21.11-55.07T965.15,346Zm392.07,159.55-105-105c.1,3.09.17,6.19.17,9.32q0,74.11-40.66,130.21t-118.89,79.78l80.28,138.85,184.15-184.15A48.77,48.77,0,0,0,1357.22,505.52Zm-794.44,69L663.54,675.24V404.76L562.78,505.52A48.77,48.77,0,0,0,562.78,574.48ZM865.3,635.22V877l60.22,60.22a48.77,48.77,0,0,0,69,0l35.78-35.79L886.92,635.22Z"/></svg>