<svg xmlns="http://www.w3.org/2000/svg" xmlns:xlink="http://www.w3.org/1999/xlink" viewBox="0 0 954 954"><defs><style>.a{fill:url(#a);}</style><linearGradient id="a" x1="483" y1="540" x2="1437" y2="540" gradientUnits="userSpaceOnUse"><stop offset="0" stop-color="#d174ff"/><stop offset="1" stop-color="#ff8157"/><stop offset="1" stop-color="#fd815d"/><stop offset="1"/></linearGradient></defs><path class="a" d="M985.06,119.4H880.19L920,79.56a56.52,56.52,0,0,1,79.94,0l43,43A508.26,508.26,0,0,0,985.06,119.4ZM966,315.08H850.23v175.4H966q47.7,0,71.59-22.67t23.86-65.63q0-40.55-24.46-63.83T966,315.08Zm454.47,185L1298.67,378.26c.12,3.58.2,7.17.2,10.8q0,85.9-47.13,150.94t-137.82,92.47l93.06,161L1420.44,580A56.52,56.52,0,0,0,1420.44,500ZM499.56,580l116.8,116.8V383.23L499.56,500A56.52,56.52,0,0,0,499.56,580Zm350.67,70.4V930.64l69.8,69.8a56.52,56.52,0,0,0,79.94,0L1041.45,959,875.28,650.37Z" transform="translate(-483 -63)"/></svg>