<svg xmlns="http://www.w3.org/2000/svg" viewBox="0 0 1301.83 226.79"><defs><style>.a{fill:#FFF;}</style></defs><path class="a" d="M565.74,426.71,519.32,607.08,699.7,653.5l46.42-180.37Zm80,135.52-35.21-9.06L619.64,518,654.85,527Z" transform="translate(-308.79 -426.71)"/><path class="a" d="M430.54,446.91c47,0,67.75,28,67.75,55.75,0,17.25-7.5,31.75-21.25,41.25,20,22.75,32.25,53.5,36,89.25h-85.5c-3.5-49.5-14-69-36.25-69v69h-82.5V446.91Zm-39.25,74.25h2.25c15,0,22.25-5.5,22.25-17.5,0-8-4-18.5-19.5-18.5h-5Z" transform="translate(-308.79 -426.71)"/><path class="a" d="M881.85,446.91c60.25,0,72.25,30.5,72.25,52,0,15.25-5.5,29.25-24.25,40,23.5,12.5,29.25,26.75,29.25,42.75,0,28.75-20.25,51.5-63.75,51.5h-130V446.91Zm-34,73.75h2c18,0,24.75-5,24.75-18.25,0-10.25-5-18-21.75-18h-5Zm0,71.5h2.5c19,0,26.25-5.25,26.25-19.25,0-12.25-5.75-21-23-21h-5.75Z" transform="translate(-308.79 -426.71)"/><path class="a" d="M984.37,446.91h82.5v139.5h72.25v46.75H984.37Z" transform="translate(-308.79 -426.71)"/><path class="a" d="M1164.37,446.91V633.16h186.25V446.91ZM1275.66,558.2h-36.35V521.85h36.35Z" transform="translate(-308.79 -426.71)"/><path class="a" d="M1372.88,446.91h90l27.5,34.25,26.25-34.25h89.5l-70.5,91.5,75,94.75h-90.25l-29.5-37-28.5,37h-89.5l72.75-94.25Z" transform="translate(-308.79 -426.71)"/></svg>